<?xml version="1.0" standalone="no"?><!DOCTYPE svg PUBLIC "-//W3C//DTD SVG 1.1//EN" "http://www.w3.org/Graphics/SVG/1.1/DTD/svg11.dtd"><svg t="1775110548906" class="icon" viewBox="0 0 1024 1024" version="1.1" xmlns="http://www.w3.org/2000/svg" p-id="1708" xmlns:xlink="http://www.w3.org/1999/xlink" width="200" height="200"><path d="M987.648 510.464c0 261.632-212.48 474.112-474.112 474.112S39.424 772.096 39.424 510.464 251.904 36.352 513.536 36.352s474.112 212.48 474.112 474.112" fill="#0152A3" p-id="1709"></path><path d="M975.36 510.464c0 254.976-206.848 461.824-461.824 461.824C258.56 972.8 51.2 765.44 51.2 510.464c0-254.976 206.848-461.824 461.824-461.824 255.488 0 462.336 206.848 462.336 461.824" fill="#63B3CC" p-id="1710"></path><path d="M939.008 510.464c0 235.008-190.464 425.472-425.472 425.472-235.008 0-425.472-190.464-425.472-425.472 0-235.008 190.464-425.472 425.472-425.472 235.008 0 425.472 190.464 425.472 425.472" fill="#FFFFFF" p-id="1711"></path><path d="M645.632 702.464c21.504 7.68 45.568 6.144 67.072-5.632 11.776-6.656 20.992-15.36 28.16-25.6 25.088 18.432 59.392 21.504 88.576 5.632 33.792-18.432 49.152-57.344 39.936-93.184 24.576-25.6 31.232-65.024 12.8-97.792-22.016-39.936-72.192-54.272-112.128-32.256-14.336 7.68-25.088 18.944-32.256 32.256-17.408-2.56-36.352 0-53.248 9.216-17.92 9.728-30.72 25.6-37.376 43.52-17.408-2.56-36.352 0-52.736 9.216-39.936 22.016-54.272 72.192-32.256 112.128 17.408 31.232 50.688 47.104 83.456 42.496z" fill="#30C03F" p-id="1712"></path><path d="M385.536 828.928c15.872 15.872 38.4 25.6 62.976 24.064 13.312-0.512 25.6-4.608 36.352-10.752 14.848 27.136 44.544 45.056 77.312 43.52 38.4-2.048 69.12-30.208 76.288-66.56 33.28-12.288 56.32-45.056 53.76-82.432-2.56-45.568-41.472-80.384-87.04-77.824-16.384 1.024-30.72 6.656-43.008 15.36-14.848-10.24-32.768-15.872-51.712-14.848-20.48 1.024-38.912 9.728-52.736 23.04-14.848-10.24-32.768-15.872-51.712-14.336-45.568 2.56-80.384 41.472-77.824 87.04 2.56 34.816 26.112 63.488 57.344 73.728z" fill="#30C03F" p-id="1713"></path><path d="M247.808 682.496c11.264 19.456 30.72 34.304 54.784 39.424 12.8 2.56 26.112 2.048 37.888-1.024 7.168 30.208 31.232 55.296 63.488 61.952 37.888 7.68 74.752-11.264 91.136-44.544 35.328-3.072 66.048-29.184 73.216-65.536 9.216-44.544-19.456-88.576-64-97.792-15.872-3.072-31.744-1.536-45.568 3.584-11.264-13.824-27.648-23.552-46.08-27.648-19.968-4.096-39.936-0.512-56.832 8.704-11.264-13.312-27.648-23.552-46.08-27.648-44.544-9.216-88.576 19.456-97.792 64-7.168 34.816 8.192 68.608 35.84 86.528z" fill="#BAD51F" p-id="1714"></path><path d="M273.408 482.304c57.856 33.792 132.608 14.336 166.4-43.52s14.336-132.608-43.52-166.4c-57.856-33.792-132.608-14.336-166.4 43.52s-14.336 132.096 43.52 166.4" fill="#B800FE" p-id="1715"></path><path d="M281.088 469.504c51.2 29.696 116.224 12.8 146.432-38.4 29.696-51.2 12.8-116.224-38.4-146.432-51.2-29.696-116.224-12.8-146.432 38.4-29.696 51.2-12.8 116.736 38.4 146.432" fill="#3B0025" p-id="1716"></path><path d="M331.776 372.224L266.24 333.824s0-23.04 22.528-36.864c20.48-12.8 42.496-0.512 42.496-0.512l0.512 75.776zM340.48 377.344l65.536 38.4s19.968-11.264 21.504-37.888c1.024-24.064-20.48-37.376-20.48-37.376l-66.56 36.864zM336.384 372.736l2.048-75.776s19.968-11.264 43.008 1.536c20.992 11.776 20.992 36.864 20.992 36.864l-66.048 37.376z" fill="#FFFFFF" p-id="1717"></path><path d="M329.216 376.832l-65.536-38.4s-19.968 11.264-21.504 37.376c-1.024 24.064 20.48 37.376 20.48 37.376l66.56-36.352z" fill="#F9949E" p-id="1718"></path><path d="M337.92 381.952l65.536 38.4s0 23.04-22.528 36.864c-20.48 12.8-42.496 0.512-42.496 0.512L337.92 381.952zM331.776 380.416l-65.024 38.912s0 23.04 22.528 36.864c20.48 12.8 42.496 0 42.496 0V380.416z" fill="#FFFFFF" p-id="1719"></path><path d="M448.512 389.632c57.856 33.792 132.608 14.336 166.4-43.52s14.336-132.608-43.52-166.4c-57.856-33.792-132.608-14.336-166.4 43.52s-14.336 132.608 43.52 166.4" fill="#B800FE" p-id="1720"></path><path d="M456.192 376.832c51.2 29.696 116.224 12.8 146.432-38.4 29.696-51.2 12.8-116.224-38.4-146.432-51.2-29.696-116.224-12.8-146.432 38.4-29.696 51.2-12.8 116.736 38.4 146.432" fill="#3B0025" p-id="1721"></path><path d="M506.88 280.064l-65.536-38.4s0-23.04 22.528-36.864c20.48-12.8 42.496-0.512 42.496-0.512l0.512 75.776zM515.584 285.184l65.536 38.4s19.968-11.264 21.504-37.888c1.024-24.064-20.48-37.376-20.48-37.376l-66.56 36.864zM511.488 280.576l2.048-75.776s19.968-11.264 43.008 1.536c20.992 11.776 20.992 36.864 20.992 36.864l-66.048 37.376z" fill="#FFFFFF" p-id="1722"></path><path d="M504.32 284.16L438.784 245.76s-19.968 11.264-21.504 37.376c-1.024 24.064 20.48 37.376 20.48 37.376l66.56-36.352z" fill="#F9949E" p-id="1723"></path><path d="M513.024 289.792L578.56 327.68s0 23.04-22.528 36.864c-20.48 12.8-42.496 0.512-42.496 0.512l-0.512-75.264zM506.88 288.256l-65.024 38.912s0 23.04 22.528 36.864c20.48 12.8 42.496 0 42.496 0V288.256z" fill="#FFFFFF" p-id="1724"></path><path d="M721.92 279.04l136.704 139.264s-54.784 122.368-139.776 182.784-81.92 31.232-157.184 93.184c-30.208 25.088-55.296 61.952-55.296 61.952l-133.12-135.68s122.368-119.808 189.44-155.136c47.616-25.088 158.208-94.208 159.232-186.368z" fill="#FFD0D2" p-id="1725"></path><path d="M753.664 311.296l28.672 29.184s-29.184 87.04-113.664 147.456-108.032 66.56-182.784 128.512c-30.208 25.088-55.296 61.952-55.296 61.952l-24.576-25.088s122.368-119.808 189.44-155.136c46.592-25.088 157.696-94.72 158.208-186.88z" fill="#E8888D" p-id="1726"></path><path d="M802.816 361.472l28.672 29.184s-29.184 87.04-113.664 147.456-108.032 66.56-182.784 128.512c-30.208 25.088-55.296 61.952-55.296 61.952l-24.576-25.088s122.368-119.808 189.44-155.136c46.592-25.6 157.184-94.72 158.208-186.88z" fill="#E8888D" p-id="1727"></path></svg>